<svg xmlns="http://www.w3.org/2000/svg" xmlns:xlink="http://www.w3.org/1999/xlink" preserveAspectRatio="xMidYMid" width="19" height="19" viewBox="0 0 19 19">
  <path fill="#2a95df" fill-rule="evenodd" d="M9.500,19.000 C4.262,19.000 -0.000,14.738 -0.000,9.500 C-0.000,4.262 4.262,-0.000 9.500,-0.000 C14.738,-0.000 19.000,4.262 19.000,9.500 C19.000,14.738 14.738,19.000 9.500,19.000 ZM8.636,13.106 C8.636,13.583 9.023,13.970 9.500,13.970 C9.977,13.970 10.364,13.583 10.364,13.106 L10.364,9.924 C10.364,9.447 9.977,9.061 9.500,9.061 C9.023,9.061 8.636,9.447 8.636,9.924 L8.636,13.106 ZM9.500,5.030 C8.865,5.030 8.349,5.547 8.349,6.182 C8.349,6.817 8.865,7.333 9.500,7.333 C10.135,7.333 10.651,6.817 10.651,6.182 C10.651,5.547 10.135,5.030 9.500,5.030 Z" class="cls-1"/>
</svg>
