<svg xmlns="http://www.w3.org/2000/svg" width="234" height="92" viewBox="0 0 234 92">
  <defs>
    <style>
      .cls-1 {
        fill: #e9f4fc;
        fill-rule: evenodd;
      }
    </style>
  </defs>
  <path id="Successful_Icon_Back" data-name="Successful Icon Back" class="cls-1" d="M899.3,209.617l-0.659-.391a1.69,1.69,0,0,0-2.195.449l-3.452,5.857-3.084-1.5a1.688,1.688,0,0,0-2.194.449l-0.44.614a1.381,1.381,0,0,0,.438,2.013l5.055,2.676a1.689,1.689,0,0,0,2.194-.448l4.774-7.706A1.381,1.381,0,0,0,899.3,209.617Zm-179,39-0.659-.391a1.69,1.69,0,0,0-2.195.449l-3.452,5.857-3.084-1.5a1.688,1.688,0,0,0-2.194.449l-0.44.614a1.381,1.381,0,0,0,.438,2.013l5.055,2.676a1.689,1.689,0,0,0,2.194-.448l4.774-7.706A1.381,1.381,0,0,0,720.3,248.617Zm192.462,26.637,12.988,6.5-7.5,11.988-11.988-6.5ZM758,282a8,8,0,1,1-8,8A8,8,0,0,1,758,282Zm0.986-58L742,217.115,757,206ZM935.5,228a6.5,6.5,0,1,1-6.5,6.5A6.5,6.5,0,0,1,935.5,228ZM758,285a5,5,0,1,1-5,5A5,5,0,0,1,758,285Zm177.5-54a3.5,3.5,0,1,1-3.5,3.5A3.5,3.5,0,0,1,935.5,231Zm-21.269,49L921,283.333,916.769,289,911,285.667ZM755.35,218.88l-6.573-2.758,5.675-4.313Z" transform="translate(-708 -206)"/>
</svg>
