<svg height="496pt" viewBox="0 -27 496 495" width="496pt" xmlns="http://www.w3.org/2000/svg" xmlns:xlink="http://www.w3.org/1999/xlink"><linearGradient id="a" gradientUnits="userSpaceOnUse" x1="248" x2="248" y1="440.5" y2=".5"><stop offset="0" stop-color="#9f2fff"/><stop offset="1" stop-color="#0bb1d3"/></linearGradient><path d="m240 304.5c0 4.414062 3.59375 8 8 8 13.230469 0 24 10.769531 24 24 0 10.414062-6.710938 19.214844-16 22.527344v17.472656h-16v-17.472656c-9.289062-3.3125-16-12.113282-16-22.527344h16c0 4.414062 3.59375 8 8 8s8-3.585938 8-8-3.59375-8-8-8c-13.230469 0-24-10.769531-24-24 0-10.414062 6.710938-19.214844 16-22.527344v-17.472656h16v17.472656c9.289062 3.3125 16 12.113282 16 22.527344h-16c0-4.414062-3.59375-8-8-8s-8 3.585938-8 8zm96 16c0 48.519531-39.480469 88-88 88s-88-39.480469-88-88 39.480469-88 88-88 88 39.480469 88 88zm-16 0c0-39.703125-32.304688-72-72-72s-72 32.296875-72 72 32.304688 72 72 72 72-32.296875 72-72zm170.078125-136.871094c3.929687 10.214844 5.921875 20.933594 5.921875 31.871094v6.832031c0 13.0625-2.960938 26.199219-8.542969 38.007813l-23.457031 49.511718v130.648438h-432v-130.648438l-23.457031-49.519531c-5.582031-11.792969-8.542969-24.9375-8.542969-38v-6.832031c0-10.9375 1.992188-21.65625 5.910156-31.863281l34.089844-88.625v-14.511719h-16v-80h128v80h-16v14.113281l14.632812 29.253907c6.128907 12.265624 9.367188 25.992187 9.367188 39.703124 0 12.761719-2.9375 25.355469-8.238281 36.929688h192.476562c-5.300781-11.574219-8.238281-24.167969-8.238281-36.929688 0-13.710937 3.238281-27.4375 9.367188-39.703124l14.632812-29.253907v-14.113281h-16v-80h128v80h-16v14.511719zm-130.078125-119.128906h96v-48h-96zm-320 0h96v-48h-96zm-8 207.976562v-71.976562h43.054688l13.792968-27.574219 14.3125 7.160157-21.335937 42.679687c-1.191407 2.367187-1.824219 5.023437-1.824219 7.679687v.871094c0 9.480469 7.703125 17.183594 17.183594 17.183594 6.230468 0 11.992187-3.390625 15.015625-8.832031l22.640625-40.753907c5.992187-10.789062 9.160156-23.007812 9.160156-35.34375 0-11.238281-2.65625-22.496093-7.679688-32.542968l-16.320312-32.640625v-17.886719h-64v17.488281l-35.152344 91.382813c-3.214844 8.367187-4.847656 17.160156-4.847656 26.128906v6.832031c0 10.710938 2.425781 21.488281 7.007812 31.152344zm416-55.976562h-19.175781c2.023437 4.359375 3.175781 9.136719 3.175781 13.945312v.871094c0 18.304688-14.886719 33.183594-33.183594 33.183594-12.039062 0-23.152344-6.535156-29-17.070312l-17.191406-30.929688h-209.25l-17.183594 30.929688c-5.855468 10.535156-16.96875 17.070312-29.007812 17.070312-18.296875 0-33.183594-14.878906-33.183594-33.175781v-.871094c0-4.816406 1.152344-9.59375 3.175781-13.953125h-19.175781v208h400zm32-1c0-8.96875-1.632812-17.761719-4.847656-26.136719l-35.152344-91.375v-17.488281h-64v17.886719l-16.320312 32.632812c-5.023438 10.054688-7.679688 21.3125-7.679688 32.550781 0 12.335938 3.167969 24.554688 9.160156 35.34375l22.640625 40.753907c3.03125 5.441406 8.785157 8.832031 15.015625 8.832031 9.480469 0 17.183594-7.703125 17.183594-17.175781v-.871094c0-2.65625-.632812-5.3125-1.816406-7.6875l-21.335938-42.679687 14.3125-7.160157 13.785156 27.574219h43.054688v71.976562l8.992188-18.984374c4.582031-9.671876 7.007812-20.449219 7.007812-31.160157zm0 0" fill="url(#a)"/></svg>