<svg height="496pt" viewBox="0 0 496 496" width="496pt" xmlns="http://www.w3.org/2000/svg" xmlns:xlink="http://www.w3.org/1999/xlink"><linearGradient id="a" gradientTransform="matrix(8 0 0 -8 -8 504)" gradientUnits="userSpaceOnUse" x1="32" x2="32" y1="1" y2="63"><stop offset="0" stop-color="#9f2fff"/><stop offset="1" stop-color="#0bb1d3"/></linearGradient><path d="m136 168c0 4.414062-3.585938 8-8 8s-8-3.585938-8-8 3.585938-8 8-8 8 3.585938 8 8zm72 8c4.414062 0 8-3.585938 8-8s-3.585938-8-8-8-8 3.585938-8 8 3.585938 8 8 8zm-8 40h-16c0 8.824219-7.175781 16-16 16s-16-7.175781-16-16h-16c0 17.648438 14.351562 32 32 32s32-14.351562 32-32zm184-168v17.472656c-9.289062 3.3125-16 12.113282-16 22.527344 0 13.230469 10.769531 24 24 24 4.40625 0 8 3.585938 8 8s-3.59375 8-8 8-8-3.585938-8-8h-16c0 10.414062 6.710938 19.214844 16 22.527344v17.472656h16v-17.472656c9.289062-3.3125 16-12.113282 16-22.527344 0-13.230469-10.769531-24-24-24-4.40625 0-8-3.585938-8-8s3.59375-8 8-8 8 3.585938 8 8h16c0-10.414062-6.710938-19.214844-16-22.527344v-17.472656zm8-32c48.519531 0 88 39.480469 88 88s-39.480469 88-88 88-88-39.480469-88-88 39.480469-88 88-88zm0 16c-39.695312 0-72 32.296875-72 72s32.304688 72 72 72 72-32.296875 72-72-32.304688-72-72-72zm104 328c0 61.761719-50.238281 112-112 112-17.191406 0-33.425781-4.007812-48-10.960938v34.960938h-336v-125.40625c0-24.144531 15.382812-45.496094 38.296875-53.121094l81.703125-27.242187v-16.574219c-17.679688-11.558594-30.910156-29.304688-36.710938-50.136719-19.816406-2.367187-35.289062-19.078125-35.289062-39.519531v-87.015625c0-22.023437 14.230469-41.273437 34.976562-47.871094 20.933594-30.777343 55.542969-49.113281 92.800782-49.113281 61.878906 0 112.222656 50.34375 112.222656 112.214844v71.785156c0 20.441406-15.472656 37.160156-35.289062 39.519531-5.789063 20.839844-19.03125 38.578125-36.710938 50.136719v16.574219l66.726562 22.25c17.921876-38.03125 56.519532-64.480469 101.273438-64.480469 61.761719 0 112 50.238281 112 112zm-224-176c0-10.414062-6.710938-19.214844-16-22.527344v38.527344c0 2.238281-.167969 4.433594-.335938 6.632812 9.464844-3.21875 16.335938-12.097656 16.335938-22.632812zm-191.664062 22.632812c-.167969-2.199218-.335938-4.394531-.335938-6.632812v-38.527344c-9.289062 3.3125-16 12.113282-16 22.527344 0 10.535156 6.871094 19.414062 16.335938 22.632812zm7.664062-94.632812c22.535156 0 44.070312-10.769531 57.601562-28.808594l4.949219-6.589844 6.449219 5.152344c24.382812 19.503906 55.007812 30.246094 86.230469 30.246094h12.769531v32.808594c5.945312 1.214844 11.328125 3.855468 16 7.390625v-39.984375c0-53.054688-43.167969-96.214844-96.222656-96.214844-32.242188 0-62.175782 16.015625-80.066406 42.839844l-2.765626 4.167968-3.007812.753907c-15.273438 3.824219-25.945312 17.484375-25.945312 33.222656v55.222656c4.671874-3.535156 10.054687-6.183593 16-7.390625v-32.816406zm80 160c39.695312 0 72-32.296875 72-72v-72.03125c-31.089844-.664062-61.496094-10.839844-86.71875-28.960938-14.785156 16.304688-35.359375 26.59375-57.28125 28.625v72.367188c0 39.703125 32.304688 72 72 72zm-32 9.886719v13.128906c3.671875 14.710937 16.832031 24.984375 32 24.984375s28.328125-10.273438 32-24.984375v-13.128906c-9.9375 3.898437-20.703125 6.113281-32 6.113281s-22.0625-2.214844-32-6.113281zm-120 198.113281h48v-72h16v72h80v-144.671875c-16.542969-2.71875-30.519531-13.742187-37.054688-29.207031l-79.59375 26.527344c-16.359374 5.457031-27.351562 20.703124-27.351562 37.945312zm304-28.214844c-28.976562-20.265625-48-53.816406-48-91.785156 0-11.34375 1.726562-22.289062 4.871094-32.609375l-63.816406-21.269531c-6.535157 15.464844-20.511719 26.488281-37.054688 29.207031v144.671875h80v-72h16v72h48zm160-91.785156c0-52.9375-43.0625-96-96-96s-96 43.0625-96 96 43.0625 96 96 96 96-43.0625 96-96zm-72-24h40v48h-40v40h-48v-40h-40v-48h40v-40h48zm-16 16v-40h-16v40h-40v16h40v40h16v-40h40v-16zm-248 0h-16v16h16zm0 32h-16v16h16zm0 32h-16v16h16zm64-40h32v-16h-32zm-64 72h-16v16h16zm0 0" fill="url(#a)"/></svg>