<svg height="496pt" viewBox="-2 0 496 496" width="496pt" xmlns="http://www.w3.org/2000/svg" xmlns:xlink="http://www.w3.org/1999/xlink"><linearGradient id="a" gradientUnits="userSpaceOnUse" x1="246.152" x2="246.152" y1="496" y2="0"><stop offset="0" stop-color="#9f2fff"/><stop offset="1" stop-color="#0bb1d3"/></linearGradient><path d="m118.152344 72c0 4.414062 3.582031 8 8 8 13.230468 0 24 10.769531 24 24 0 10.414062-6.710938 19.214844-16 22.527344v17.472656h-16v-17.472656c-9.289063-3.3125-16-12.113282-16-22.527344h16c0 4.414062 3.582031 8 8 8 4.414062 0 8-3.585938 8-8s-3.585938-8-8-8c-13.230469 0-24-10.769531-24-24 0-10.414062 6.710937-19.214844 16-22.527344v-17.472656h16v17.472656c9.289062 3.3125 16 12.113282 16 22.527344h-16c0-4.414062-3.585938-8-8-8-4.417969 0-8 3.585938-8 8zm248 64c-4.417969 0-8-3.585938-8-8h-16c0 10.414062 6.710937 19.214844 16 22.527344v17.472656h16v-17.472656c9.289062-3.3125 16-12.113282 16-22.527344 0-13.230469-10.769532-24-24-24-4.417969 0-8-3.585938-8-8s3.582031-8 8-8c4.414062 0 8 3.585938 8 8h16c0-10.414062-6.710938-19.214844-16-22.527344v-17.472656h-16v17.472656c-9.289063 3.3125-16 12.113282-16 22.527344 0 13.230469 10.769531 24 24 24 4.414062 0 8 3.585938 8 8s-3.585938 8-8 8zm-91.089844 97.183594c10.394531-5.824219 22.351562-9.183594 35.089844-9.183594h56v8c0 39.703125-32.296875 72-72 72h-39.800782c-.085937 2.175781-.199218 4.34375-.199218 6.527344v9.472656h104v64h-17.054688l-16 112h-157.882812l-16-112h-17.0625v-64h18.839844c-16.34375-13.207031-26.839844-33.390625-26.839844-56v-8h56c22.09375 0 41.878906 10.023438 55.105468 25.742188-4.515624-46.796876-27.066406-89.496094-63.59375-119.78125-13.71875 8.847656-30.007812 14.039062-47.511718 14.039062-48.519532 0-88-39.480469-88-88s39.480468-88 88-88c48.519531 0 88 39.480469 88 88 0 25.144531-10.65625 47.792969-27.617188 63.847656 31.007813 26.640625 52.375 61.65625 61.929688 100.527344 11.03125-30.269531 30.527344-57.09375 56.792968-77-16.671874-16.023438-27.105468-38.488281-27.105468-63.375 0-48.519531 39.480468-88 88-88 48.519531 0 88 39.480469 88 88s-39.480469 88-88 88c-17.65625 0-34.089844-5.28125-47.878906-14.265625-17.847657 12.792969-32.464844 29.007813-43.210938 47.449219zm91.089844-49.183594c39.703125 0 72-32.296875 72-72s-32.296875-72-72-72-72 32.296875-72 72 32.296875 72 72 72zm-240-24c39.703125 0 72-32.296875 72-72s-32.296875-72-72-72-72 32.296875-72 72 32.296875 72 72 72zm72 160h39.433594c-3.890626-27.105469-27.265626-48-55.433594-48h-39.433594c3.898438 27.105469 27.265625 48 55.433594 48zm113.0625 160 9.144531-64h-148.40625l9.144531 64zm13.714844-96h-157.554688l2.289062 16h152.976563zm17.222656-48h-192v32h192zm-83.738282-61.328125c-1.046874 4.382813-1.886718 8.832031-2.542968 13.328125h38.28125c28.167968 0 51.535156-20.894531 55.433594-48h-39.433594c-23.328125 0-43.328125 14.351562-51.738282 34.671875zm-258.414062-31.800781 12.296875 10.25 25.855469-31.015625v121.894531h16v-121.894531l25.847656 31.023437 12.296875-10.25-46.144531-55.375zm38.152344 133.128906h16v-16h-16zm0 32h16v-16h-16zm0 32h16v-16h-16zm416 9.894531v-121.894531h-16v121.894531l-25.847656-31.023437-12.296876 10.25 46.144532 55.375 46.152344-55.375-12.296876-10.25zm-16-137.894531h16v-16h-16zm16-48h-16v16h16zm0-32h-16v16h16zm0 0" fill="url(#a)"/></svg>