<svg height="496pt" viewBox="0 0 496 496" width="496pt" xmlns="http://www.w3.org/2000/svg" xmlns:xlink="http://www.w3.org/1999/xlink"><linearGradient id="a" gradientUnits="userSpaceOnUse" x1="248" x2="248" y1="496" y2="0"><stop offset="0" stop-color="#9f2fff"/><stop offset="1" stop-color="#0bb1d3"/></linearGradient><path d="m240 392c0 4.40625 3.585938 8 8 8 13.230469 0 24 10.769531 24 24 0 10.414062-6.710938 19.214844-16 22.527344v17.472656h-16v-17.472656c-9.289062-3.3125-16-12.113282-16-22.527344h16c0 4.40625 3.585938 8 8 8s8-3.59375 8-8-3.585938-8-8-8c-13.230469 0-24-10.769531-24-24 0-10.414062 6.710938-19.214844 16-22.527344v-17.472656h16v17.472656c9.289062 3.3125 16 12.113282 16 22.527344h-16c0-4.40625-3.585938-8-8-8s-8 3.59375-8 8zm-216-248h-24v-19.609375l140.976562-124.390625h238.496094l116.527344 124.847656v19.152344h-32v224h-114.902344c1.847656 7.808594 2.902344 15.839844 2.902344 24 0 57.34375-46.65625 104-104 104s-104-46.65625-104-104c0-8.160156 1.054688-16.191406 2.902344-24h-122.902344zm128 208v.207031c3.800781-9.160156 8.910156-17.75 15.238281-25.558593l-13.285156-32.3125c-1.296875-3.167969-1.953125-6.488282-1.953125-9.886719v-2.480469c0-14.320312 11.648438-25.96875 25.96875-25.96875 11.933594 0 22.304688 8.089844 25.191406 19.671875l1.808594 7.214844c.757812 3.007812 3.445312 5.113281 6.535156 5.113281 3.3125 0 6.113282-2.367188 6.65625-5.640625l3.3125-19.894531c1.71875-10.265625 9.046875-18.234375 18.519532-21.175782v-97.289062h-19.070313l-76.921875-69.238281-76.929688 69.238281h-27.070312v208zm176-70.03125c0-5.496094-4.472656-9.96875-9.96875-9.96875-4.582031 0-8.558594 3.105469-9.679688 7.550781l-1.808593 7.21875c-2.527344 10.140625-11.597657 17.230469-22.046875 17.230469-11.167969 0-20.601563-7.992188-22.441406-19l-3.3125-19.894531c-.886719-5.273438-5.398438-9.105469-10.742188-9.105469s-9.855469 3.832031-10.742188 9.105469l-3.3125 19.886719c-1.832031 11.015624-11.273437 19.007812-22.441406 19.007812-10.457031 0-19.519531-7.089844-22.054687-17.222656l-1.808594-7.21875c-1.113281-4.453125-5.089844-7.558594-9.671875-7.558594-5.496094 0-9.96875 4.472656-9.96875 9.96875v2.480469c0 1.304687.246094 2.582031.753906 3.796875l13.054688 31.753906h132.390625l13.058593-31.761719c.496094-1.207031.742188-2.484375.742188-3.789062zm8 110.03125c0-20.535156-7.207031-40.257812-20.230469-56h-135.539062c-13.023438 15.742188-20.230469 35.464844-20.230469 56 0 48.519531 39.480469 88 88 88s88-39.480469 88-88zm112-248h-192v97.296875c9.472656 2.941406 16.808594 10.902344 18.519531 21.167969v.007812l3.3125 19.894532c.550781 3.265624 3.34375 5.632812 6.664063 5.632812 3.097656 0 5.785156-2.105469 6.535156-5.113281l1.808594-7.214844c2.886718-11.582031 13.257812-19.671875 25.191406-19.671875 14.320312 0 25.96875 11.648438 25.96875 25.96875v2.480469c0 3.398437-.65625 6.71875-1.953125 9.871093l-13.285156 32.320313c6.316406 7.808594 11.4375 16.398437 15.238281 25.558594v-.199219h104zm-75.480469-128h-207.367187l122.847656 108.390625v3.609375h189.054688zm-352.421875 112h40.832032l83.070312-74.761719 83.070312 74.761719h40.839844l-123.910156-109.335938zm123.902344 72c-22.054688 0-40-17.945312-40-40s17.945312-40 40-40 40 17.945312 40 40-17.945312 40-40 40zm24-40c0-13.230469-10.769531-24-24-24s-24 10.769531-24 24 10.769531 24 24 24 24-10.769531 24-24zm0 0" fill="url(#a)"/></svg>